<mxfile host="app.diagrams.net" agent="Mozilla/5.0 (Windows NT 10.0; Win64; x64; rv:139.0) Gecko/20100101 Firefox/139.0" version="27.1.6">
  <diagram name="Seite-1" id="GMx1bsoJCzmxL5je-vcH">
    <mxGraphModel dx="1042" dy="563" grid="1" gridSize="10" guides="1" tooltips="1" connect="1" arrows="1" fold="1" page="1" pageScale="1" pageWidth="827" pageHeight="1169" math="0" shadow="0">
      <root>
        <mxCell id="0" />
        <mxCell id="1" parent="0" />
        <mxCell id="7yS5vIYlHkwQTDPu8pAM-1" style="edgeStyle=orthogonalEdgeStyle;rounded=0;orthogonalLoop=1;jettySize=auto;html=1;exitX=1;exitY=0.5;exitDx=0;exitDy=0;entryX=0;entryY=0.5;entryDx=0;entryDy=0;" edge="1" parent="1" source="P992E0XuD9_Mefu6UTS9-34" target="P992E0XuD9_Mefu6UTS9-37">
          <mxGeometry relative="1" as="geometry" />
        </mxCell>
        <mxCell id="7yS5vIYlHkwQTDPu8pAM-6" value="Text" style="edgeLabel;html=1;align=center;verticalAlign=middle;resizable=0;points=[];" vertex="1" connectable="0" parent="7yS5vIYlHkwQTDPu8pAM-1">
          <mxGeometry x="-0.1" relative="1" as="geometry">
            <mxPoint as="offset" />
          </mxGeometry>
        </mxCell>
        <mxCell id="7yS5vIYlHkwQTDPu8pAM-7" value="Click &#39;Reservationen erfassen" style="edgeLabel;html=1;align=center;verticalAlign=middle;resizable=0;points=[];" vertex="1" connectable="0" parent="7yS5vIYlHkwQTDPu8pAM-1">
          <mxGeometry x="-0.0652" y="1" relative="1" as="geometry">
            <mxPoint as="offset" />
          </mxGeometry>
        </mxCell>
        <mxCell id="7yS5vIYlHkwQTDPu8pAM-17" style="edgeStyle=orthogonalEdgeStyle;rounded=0;orthogonalLoop=1;jettySize=auto;html=1;exitX=0.25;exitY=0;exitDx=0;exitDy=0;entryX=1;entryY=0.75;entryDx=0;entryDy=0;" edge="1" parent="1" source="P992E0XuD9_Mefu6UTS9-34" target="P992E0XuD9_Mefu6UTS9-41">
          <mxGeometry relative="1" as="geometry">
            <Array as="points">
              <mxPoint x="75" y="550" />
              <mxPoint x="810" y="550" />
              <mxPoint x="810" y="828" />
            </Array>
          </mxGeometry>
        </mxCell>
        <mxCell id="7yS5vIYlHkwQTDPu8pAM-18" value="View all reservations" style="edgeLabel;html=1;align=center;verticalAlign=middle;resizable=0;points=[];" vertex="1" connectable="0" parent="7yS5vIYlHkwQTDPu8pAM-17">
          <mxGeometry x="-0.3278" y="3" relative="1" as="geometry">
            <mxPoint as="offset" />
          </mxGeometry>
        </mxCell>
        <mxCell id="P992E0XuD9_Mefu6UTS9-34" value="&lt;p style=&quot;white-space: pre-wrap;&quot; dir=&quot;auto&quot;&gt;index.html&lt;/p&gt;" style="swimlane;childLayout=stackLayout;horizontal=1;startSize=50;horizontalStack=0;rounded=1;fontSize=14;fontStyle=0;strokeWidth=2;resizeParent=0;resizeLast=1;shadow=0;dashed=0;align=center;arcSize=4;whiteSpace=wrap;html=1;" parent="1" vertex="1">
          <mxGeometry x="10" y="600" width="260" height="50" as="geometry" />
        </mxCell>
        <mxCell id="7yS5vIYlHkwQTDPu8pAM-2" style="edgeStyle=orthogonalEdgeStyle;rounded=0;orthogonalLoop=1;jettySize=auto;html=1;exitX=0.5;exitY=1;exitDx=0;exitDy=0;entryX=0.5;entryY=0;entryDx=0;entryDy=0;" edge="1" parent="1" source="P992E0XuD9_Mefu6UTS9-37" target="P992E0XuD9_Mefu6UTS9-40">
          <mxGeometry relative="1" as="geometry" />
        </mxCell>
        <mxCell id="7yS5vIYlHkwQTDPu8pAM-10" value="Submit valid reservation" style="edgeLabel;html=1;align=center;verticalAlign=middle;resizable=0;points=[];" vertex="1" connectable="0" parent="7yS5vIYlHkwQTDPu8pAM-2">
          <mxGeometry x="-0.15" y="-2" relative="1" as="geometry">
            <mxPoint as="offset" />
          </mxGeometry>
        </mxCell>
        <mxCell id="P992E0XuD9_Mefu6UTS9-37" value="&lt;p style=&quot;white-space: pre-wrap;&quot; dir=&quot;auto&quot;&gt;Component: create-reservation.html&lt;/p&gt;" style="swimlane;childLayout=stackLayout;horizontal=1;startSize=50;horizontalStack=0;rounded=1;fontSize=14;fontStyle=0;strokeWidth=2;resizeParent=0;resizeLast=1;shadow=0;dashed=0;align=center;arcSize=4;whiteSpace=wrap;html=1;" parent="1" vertex="1">
          <mxGeometry x="470" y="600" width="260" height="50" as="geometry" />
        </mxCell>
        <mxCell id="7yS5vIYlHkwQTDPu8pAM-13" style="edgeStyle=orthogonalEdgeStyle;rounded=0;orthogonalLoop=1;jettySize=auto;html=1;exitX=0.75;exitY=0;exitDx=0;exitDy=0;entryX=0.75;entryY=1;entryDx=0;entryDy=0;" edge="1" parent="1" source="P992E0XuD9_Mefu6UTS9-38" target="P992E0XuD9_Mefu6UTS9-39">
          <mxGeometry relative="1" as="geometry" />
        </mxCell>
        <mxCell id="7yS5vIYlHkwQTDPu8pAM-14" value="Submit valid updates" style="edgeLabel;html=1;align=center;verticalAlign=middle;resizable=0;points=[];" vertex="1" connectable="0" parent="7yS5vIYlHkwQTDPu8pAM-13">
          <mxGeometry x="0.08" y="-1" relative="1" as="geometry">
            <mxPoint as="offset" />
          </mxGeometry>
        </mxCell>
        <mxCell id="P992E0XuD9_Mefu6UTS9-38" value="&lt;p style=&quot;white-space: pre-wrap;&quot; dir=&quot;auto&quot;&gt;Component: edit-reservation.html&lt;/p&gt;" style="swimlane;childLayout=stackLayout;horizontal=1;startSize=50;horizontalStack=0;rounded=1;fontSize=14;fontStyle=0;strokeWidth=2;resizeParent=0;resizeLast=1;shadow=0;dashed=0;align=center;arcSize=4;whiteSpace=wrap;html=1;" parent="1" vertex="1">
          <mxGeometry x="20" y="790" width="260" height="50" as="geometry" />
        </mxCell>
        <mxCell id="7yS5vIYlHkwQTDPu8pAM-4" style="edgeStyle=orthogonalEdgeStyle;rounded=0;orthogonalLoop=1;jettySize=auto;html=1;exitX=0.25;exitY=1;exitDx=0;exitDy=0;entryX=0.25;entryY=0;entryDx=0;entryDy=0;" edge="1" parent="1" source="P992E0XuD9_Mefu6UTS9-39" target="P992E0XuD9_Mefu6UTS9-38">
          <mxGeometry relative="1" as="geometry" />
        </mxCell>
        <mxCell id="7yS5vIYlHkwQTDPu8pAM-12" value="Private key, click edit" style="edgeLabel;html=1;align=center;verticalAlign=middle;resizable=0;points=[];" vertex="1" connectable="0" parent="7yS5vIYlHkwQTDPu8pAM-4">
          <mxGeometry y="-1" relative="1" as="geometry">
            <mxPoint as="offset" />
          </mxGeometry>
        </mxCell>
        <mxCell id="P992E0XuD9_Mefu6UTS9-39" value="&lt;p style=&quot;white-space: pre-wrap;&quot; dir=&quot;auto&quot;&gt;Component: view-reservation.html&lt;/p&gt;" style="swimlane;childLayout=stackLayout;horizontal=1;startSize=50;horizontalStack=0;rounded=1;fontSize=14;fontStyle=0;strokeWidth=2;resizeParent=0;resizeLast=1;shadow=0;dashed=0;align=center;arcSize=4;whiteSpace=wrap;html=1;" parent="1" vertex="1">
          <mxGeometry x="20" y="690" width="260" height="50" as="geometry" />
        </mxCell>
        <mxCell id="7yS5vIYlHkwQTDPu8pAM-3" style="edgeStyle=orthogonalEdgeStyle;rounded=0;orthogonalLoop=1;jettySize=auto;html=1;entryX=0.5;entryY=0;entryDx=0;entryDy=0;exitX=0.5;exitY=1;exitDx=0;exitDy=0;" edge="1" parent="1" source="P992E0XuD9_Mefu6UTS9-40" target="P992E0XuD9_Mefu6UTS9-41">
          <mxGeometry relative="1" as="geometry">
            <Array as="points">
              <mxPoint x="600" y="780" />
              <mxPoint x="600" y="780" />
            </Array>
          </mxGeometry>
        </mxCell>
        <mxCell id="7yS5vIYlHkwQTDPu8pAM-11" value="View all reservations" style="edgeLabel;html=1;align=center;verticalAlign=middle;resizable=0;points=[];" vertex="1" connectable="0" parent="7yS5vIYlHkwQTDPu8pAM-3">
          <mxGeometry x="0.2737" y="1" relative="1" as="geometry">
            <mxPoint as="offset" />
          </mxGeometry>
        </mxCell>
        <mxCell id="P992E0XuD9_Mefu6UTS9-40" value="&lt;p style=&quot;white-space: pre-wrap;&quot; dir=&quot;auto&quot;&gt;Component: confirmation.html&lt;/p&gt;" style="swimlane;childLayout=stackLayout;horizontal=1;startSize=50;horizontalStack=0;rounded=1;fontSize=14;fontStyle=0;strokeWidth=2;resizeParent=0;resizeLast=1;shadow=0;dashed=0;align=center;arcSize=4;whiteSpace=wrap;html=1;" parent="1" vertex="1">
          <mxGeometry x="470" y="690" width="260" height="50" as="geometry" />
        </mxCell>
        <mxCell id="7yS5vIYlHkwQTDPu8pAM-15" style="edgeStyle=orthogonalEdgeStyle;rounded=0;orthogonalLoop=1;jettySize=auto;html=1;exitX=1;exitY=0.5;exitDx=0;exitDy=0;entryX=0.5;entryY=0;entryDx=0;entryDy=0;" edge="1" parent="1" source="P992E0XuD9_Mefu6UTS9-41" target="P992E0XuD9_Mefu6UTS9-34">
          <mxGeometry relative="1" as="geometry" />
        </mxCell>
        <mxCell id="7yS5vIYlHkwQTDPu8pAM-16" value="Back to home" style="edgeLabel;html=1;align=center;verticalAlign=middle;resizable=0;points=[];" vertex="1" connectable="0" parent="7yS5vIYlHkwQTDPu8pAM-15">
          <mxGeometry x="-0.6994" y="3" relative="1" as="geometry">
            <mxPoint as="offset" />
          </mxGeometry>
        </mxCell>
        <mxCell id="P992E0XuD9_Mefu6UTS9-41" value="&lt;p style=&quot;white-space: pre-wrap;&quot; dir=&quot;auto&quot;&gt;Component: list-reservations.html&lt;/p&gt;" style="swimlane;childLayout=stackLayout;horizontal=1;startSize=50;horizontalStack=0;rounded=1;fontSize=14;fontStyle=0;strokeWidth=2;resizeParent=0;resizeLast=1;shadow=0;dashed=0;align=center;arcSize=4;whiteSpace=wrap;html=1;" parent="1" vertex="1">
          <mxGeometry x="470" y="790" width="260" height="50" as="geometry" />
        </mxCell>
        <mxCell id="7yS5vIYlHkwQTDPu8pAM-8" style="edgeStyle=orthogonalEdgeStyle;rounded=0;orthogonalLoop=1;jettySize=auto;html=1;exitX=0.5;exitY=1;exitDx=0;exitDy=0;entryX=0.467;entryY=-0.068;entryDx=0;entryDy=0;entryPerimeter=0;" edge="1" parent="1" source="P992E0XuD9_Mefu6UTS9-34" target="P992E0XuD9_Mefu6UTS9-39">
          <mxGeometry relative="1" as="geometry" />
        </mxCell>
        <mxCell id="7yS5vIYlHkwQTDPu8pAM-9" value="Enter public/private key" style="edgeLabel;html=1;align=center;verticalAlign=middle;resizable=0;points=[];" vertex="1" connectable="0" parent="7yS5vIYlHkwQTDPu8pAM-8">
          <mxGeometry x="-0.242" y="3" relative="1" as="geometry">
            <mxPoint as="offset" />
          </mxGeometry>
        </mxCell>
      </root>
    </mxGraphModel>
  </diagram>
</mxfile>
